<svg xmlns="http://www.w3.org/2000/svg" viewBox="0 0 960 640" role="img" aria-labelledby="title desc">
  <title id="title">QR棚ラベルを作るイメージ</title>
  <desc id="desc">商品名と税込価格つきのQR棚ラベルを印刷する場面。</desc>
  <rect width="960" height="640" rx="40" fill="#fffaf0"/>
  <rect x="92" y="124" width="776" height="80" rx="18" fill="#7a5230"/>
  <rect x="92" y="360" width="776" height="80" rx="18" fill="#7a5230"/>
  <g font-family="Hiragino Sans, Yu Gothic, sans-serif" font-weight="700">
    <rect x="134" y="214" width="192" height="116" rx="20" fill="#ffffff" stroke="#e3d6c8" stroke-width="4"/>
    <text x="230" y="253" text-anchor="middle" font-size="24" fill="#1b2b34">米粉クッキー</text>
    <text x="230" y="292" text-anchor="middle" font-size="28" fill="#0f6f65">税込 330円</text>
    <rect x="170" y="306" width="48" height="48" fill="#101418"/>
    <rect x="177" y="313" width="12" height="12" fill="#fff"/>
    <rect x="199" y="313" width="12" height="12" fill="#fff"/>
    <rect x="177" y="335" width="12" height="12" fill="#fff"/>
    <rect x="242" y="306" width="48" height="48" fill="#101418"/>
    <rect x="249" y="313" width="12" height="12" fill="#fff"/>
    <rect x="271" y="313" width="12" height="12" fill="#fff"/>
    <rect x="249" y="335" width="12" height="12" fill="#fff"/>
    <rect x="384" y="214" width="192" height="116" rx="20" fill="#ffffff" stroke="#e3d6c8" stroke-width="4"/>
    <text x="480" y="253" text-anchor="middle" font-size="24" fill="#1b2b34">ハーブティー</text>
    <text x="480" y="292" text-anchor="middle" font-size="28" fill="#0f6f65">税込 540円</text>
    <rect x="454" y="310" width="52" height="52" rx="4" fill="#101418"/>
    <rect x="463" y="319" width="12" height="12" fill="#fff"/>
    <rect x="485" y="319" width="12" height="12" fill="#fff"/>
    <rect x="463" y="341" width="12" height="12" fill="#fff"/>
    <rect x="634" y="214" width="192" height="116" rx="20" fill="#ffffff" stroke="#e3d6c8" stroke-width="4"/>
    <text x="730" y="253" text-anchor="middle" font-size="24" fill="#1b2b34">布小物</text>
    <text x="730" y="292" text-anchor="middle" font-size="28" fill="#0f6f65">税込 880円</text>
    <rect x="704" y="310" width="52" height="52" rx="4" fill="#101418"/>
    <rect x="713" y="319" width="12" height="12" fill="#fff"/>
    <rect x="735" y="319" width="12" height="12" fill="#fff"/>
    <rect x="713" y="341" width="12" height="12" fill="#fff"/>
  </g>
  <path d="M158 482c90 38 202 38 292 0M510 482c90 38 202 38 292 0" fill="none" stroke="#ef6b5b" stroke-width="16" stroke-linecap="round"/>
  <text x="480" y="548" text-anchor="middle" font-family="Hiragino Sans, Yu Gothic, sans-serif" font-size="34" font-weight="700" fill="#1b2b34">棚に貼るQRを、その場で作成</text>
</svg>
