<svg xmlns="http://www.w3.org/2000/svg" viewBox="0 0 960 640" role="img" aria-labelledby="title desc">
  <title id="title">イベント会場でQRレジを使うイメージ</title>
  <desc id="desc">商品棚のQRをiPhoneで読み取り、カートに追加する場面。</desc>
  <rect width="960" height="640" rx="40" fill="#f5fbf9"/>
  <rect x="92" y="118" width="420" height="330" rx="28" fill="#ffffff" stroke="#d7e7e3" stroke-width="4"/>
  <rect x="126" y="166" width="352" height="62" rx="16" fill="#0f6f65"/>
  <text x="302" y="207" text-anchor="middle" font-family="Hiragino Sans, Yu Gothic, sans-serif" font-size="30" font-weight="700" fill="#ffffff">手作り市の商品棚</text>
  <rect x="132" y="268" width="136" height="136" rx="18" fill="#fef7ec" stroke="#f0c66f" stroke-width="4"/>
  <rect x="320" y="268" width="136" height="136" rx="18" fill="#eff8ff" stroke="#78afe5" stroke-width="4"/>
  <g fill="#101418">
    <rect x="158" y="292" width="84" height="84" rx="4"/>
    <rect x="167" y="301" width="18" height="18" fill="#fff"/>
    <rect x="215" y="301" width="18" height="18" fill="#fff"/>
    <rect x="167" y="349" width="18" height="18" fill="#fff"/>
    <rect x="191" y="326" width="18" height="18" fill="#fff"/>
    <rect x="215" y="349" width="18" height="18" fill="#fff"/>
    <rect x="346" y="292" width="84" height="84" rx="4"/>
    <rect x="355" y="301" width="18" height="18" fill="#fff"/>
    <rect x="403" y="301" width="18" height="18" fill="#fff"/>
    <rect x="355" y="349" width="18" height="18" fill="#fff"/>
    <rect x="379" y="326" width="18" height="18" fill="#fff"/>
    <rect x="403" y="349" width="18" height="18" fill="#fff"/>
  </g>
  <text x="200" y="435" text-anchor="middle" font-family="Hiragino Sans, Yu Gothic, sans-serif" font-size="24" font-weight="700" fill="#1b2b34">焼き菓子</text>
  <text x="388" y="435" text-anchor="middle" font-family="Hiragino Sans, Yu Gothic, sans-serif" font-size="24" font-weight="700" fill="#1b2b34">雑貨</text>
  <g transform="translate(602 70)">
    <rect x="0" y="0" width="230" height="470" rx="44" fill="#101418"/>
    <rect x="16" y="22" width="198" height="426" rx="32" fill="#ffffff"/>
    <rect x="40" y="64" width="150" height="150" rx="20" fill="#f7fbfa" stroke="#2d9b8d" stroke-width="4"/>
    <path d="M62 88h26M62 88v26M166 88h-26M166 88v26M62 190h26M62 190v-26M166 190h-26M166 190v-26" fill="none" stroke="#2d9b8d" stroke-width="7" stroke-linecap="round"/>
    <rect x="86" y="106" width="58" height="58" rx="4" fill="#101418"/>
    <rect x="94" y="114" width="14" height="14" fill="#fff"/>
    <rect x="122" y="114" width="14" height="14" fill="#fff"/>
    <rect x="94" y="142" width="14" height="14" fill="#fff"/>
    <path d="M54 245h122" stroke="#35c4b2" stroke-width="7" stroke-linecap="round"/>
    <rect x="34" y="282" width="162" height="72" rx="18" fill="#eaf6f3"/>
    <text x="115" y="326" text-anchor="middle" font-family="Hiragino Sans, Yu Gothic, sans-serif" font-size="22" font-weight="700" fill="#0f3f3a">カートへ追加</text>
    <rect x="34" y="374" width="162" height="48" rx="16" fill="#ffcf5a"/>
    <text x="115" y="406" text-anchor="middle" font-family="Hiragino Sans, Yu Gothic, sans-serif" font-size="22" font-weight="700" fill="#332400">会計</text>
  </g>
</svg>
